<svg width="157" height="40" viewBox="0 0 157 40" fill="none" xmlns="http://www.w3.org/2000/svg">
<path d="M31.25 5H25C25 2.24219 22.7578 0 20 0C17.2422 0 15 2.24219 15 5H8.75C6.67969 5 5 6.67969 5 8.75V36.25C5 38.3203 6.67969 40 8.75 40H31.25C33.3203 40 35 38.3203 35 36.25V8.75C35 6.67969 33.3203 5 31.25 5ZM12.5 33.125C11.4609 33.125 10.625 32.2891 10.625 31.25C10.625 30.2109 11.4609 29.375 12.5 29.375C13.5391 29.375 14.375 30.2109 14.375 31.25C14.375 32.2891 13.5391 33.125 12.5 33.125ZM12.5 25.625C11.4609 25.625 10.625 24.7891 10.625 23.75C10.625 22.7109 11.4609 21.875 12.5 21.875C13.5391 21.875 14.375 22.7109 14.375 23.75C14.375 24.7891 13.5391 25.625 12.5 25.625ZM12.5 18.125C11.4609 18.125 10.625 17.2891 10.625 16.25C10.625 15.2109 11.4609 14.375 12.5 14.375C13.5391 14.375 14.375 15.2109 14.375 16.25C14.375 17.2891 13.5391 18.125 12.5 18.125ZM20 3.125C21.0391 3.125 21.875 3.96094 21.875 5C21.875 6.03906 21.0391 6.875 20 6.875C18.9609 6.875 18.125 6.03906 18.125 5C18.125 3.96094 18.9609 3.125 20 3.125ZM30 31.875C30 32.2188 29.7188 32.5 29.375 32.5H18.125C17.7812 32.5 17.5 32.2188 17.5 31.875V30.625C17.5 30.2812 17.7812 30 18.125 30H29.375C29.7188 30 30 30.2812 30 30.625V31.875ZM30 24.375C30 24.7188 29.7188 25 29.375 25H18.125C17.7812 25 17.5 24.7188 17.5 24.375V23.125C17.5 22.7812 17.7812 22.5 18.125 22.5H29.375C29.7188 22.5 30 22.7812 30 23.125V24.375ZM30 16.875C30 17.2188 29.7188 17.5 29.375 17.5H18.125C17.7812 17.5 17.5 17.2188 17.5 16.875V15.625C17.5 15.2812 17.7812 15 18.125 15H29.375C29.7188 15 30 15.2812 30 15.625V16.875Z" fill="#875233"/>
<path d="M55.64 32.064C55.4267 28.288 55.32 25.0027 55.32 22.208C55.32 19.392 55.384 16.4587 55.512 13.408L51.608 13.952L50.904 10.24C52.9947 9.87733 55.064 9.61067 57.112 9.44L63.096 9.12L63.704 12.672C62.5307 12.736 61.208 12.832 59.736 12.96C59.608 16.032 59.544 18.848 59.544 21.408C59.544 23.968 59.5867 27.6373 59.672 32.416L55.64 32.064ZM66.137 26.24C66.137 28.6507 66.6703 29.856 67.737 29.856C68.2063 29.856 68.601 29.184 68.921 27.84C69.241 26.4747 69.401 25.1733 69.401 23.936C69.401 21.2053 68.953 19.84 68.057 19.84C67.481 19.84 67.0117 20.576 66.649 22.048C66.3077 23.4987 66.137 24.896 66.137 26.24ZM62.393 25.952C62.393 23.968 62.7983 22.0267 63.609 20.128C64.0357 19.168 64.633 18.3893 65.401 17.792C66.1903 17.1733 67.065 16.864 68.025 16.864C68.985 16.864 69.8063 17.088 70.489 17.536C71.193 17.9627 71.7263 18.5387 72.089 19.264C72.793 20.6933 73.145 22.2507 73.145 23.936C73.145 26.2613 72.665 28.3307 71.705 30.144C70.7663 31.936 69.4437 32.832 67.737 32.832C64.1743 32.832 62.393 30.5387 62.393 25.952ZM88.7723 9.568C91.2683 9.568 93.1883 10.5493 94.5323 12.512C95.8976 14.4747 96.5803 16.8533 96.5803 19.648C96.5803 21.8027 96.2389 23.84 95.5563 25.76C94.8736 27.6587 93.8069 29.2587 92.3563 30.56C90.9056 31.84 89.2096 32.48 87.2683 32.48C86.8843 32.48 85.4336 32.3307 82.9163 32.032C83.2149 27.4453 83.3643 23.648 83.3643 20.64C83.3643 17.632 83.2683 14.304 83.0763 10.656C85.1456 9.93067 87.0443 9.568 88.7723 9.568ZM88.0683 28.576C89.0496 28.576 90.0203 27.712 90.9803 25.984C91.9616 24.2347 92.4523 22.3573 92.4523 20.352C92.4523 18.3253 92.1003 16.6613 91.3963 15.36C90.7136 14.0587 89.8923 13.408 88.9323 13.408C88.4203 13.408 87.9403 13.4933 87.4923 13.664C87.5776 16.8213 87.6203 19.4773 87.6203 21.632C87.6203 23.7653 87.5563 25.9947 87.4283 28.32C87.5776 28.4907 87.7909 28.576 88.0683 28.576ZM101.731 26.24C101.731 28.6507 102.264 29.856 103.331 29.856C103.8 29.856 104.195 29.184 104.515 27.84C104.835 26.4747 104.995 25.1733 104.995 23.936C104.995 21.2053 104.547 19.84 103.651 19.84C103.075 19.84 102.605 20.576 102.243 22.048C101.901 23.4987 101.731 24.896 101.731 26.24ZM97.9868 25.952C97.9868 23.968 98.3921 22.0267 99.2028 20.128C99.6294 19.168 100.227 18.3893 100.995 17.792C101.784 17.1733 102.659 16.864 103.619 16.864C104.579 16.864 105.4 17.088 106.083 17.536C106.787 17.9627 107.32 18.5387 107.683 19.264C108.387 20.6933 108.739 22.2507 108.739 23.936C108.739 26.2613 108.259 28.3307 107.299 30.144C106.36 31.936 105.037 32.832 103.331 32.832C99.7681 32.832 97.9868 30.5387 97.9868 25.952ZM119.47 31.808C119.193 27.4133 119.054 23.392 119.054 19.744C119.054 16.0747 119.171 12.7467 119.406 9.76L123.662 10.144C123.342 13.8133 123.182 17.3227 123.182 20.672C123.182 24.0213 123.235 26.4853 123.342 28.064C124.11 27.9573 125.998 27.744 129.006 27.424L129.646 31.136C128.046 31.328 125.785 31.648 122.862 32.096L119.47 31.808ZM131.364 16.736L135.012 17.088V32.448L131.364 32.096V16.736ZM131.62 11.104L135.204 11.52L134.884 15.104L131.3 14.656L131.62 11.104ZM144.303 21.92C144.303 20.64 143.983 20 143.343 20C143.023 20 142.724 20.16 142.447 20.48C142.191 20.7787 142.063 21.1947 142.063 21.728C142.063 22.24 142.159 22.6667 142.351 23.008C142.564 23.3493 142.937 23.6907 143.471 24.032C144.025 24.352 144.452 24.6187 144.751 24.832C145.071 25.024 145.444 25.3013 145.871 25.664C146.745 26.432 147.183 27.424 147.183 28.64C147.183 29.8347 146.724 30.8053 145.807 31.552C144.911 32.2987 143.897 32.672 142.767 32.672C141.636 32.672 140.612 32.3733 139.695 31.776C138.799 31.1573 138.073 30.3893 137.519 29.472L139.247 27.52C140.1 28.992 140.996 29.728 141.935 29.728C142.255 29.728 142.532 29.6427 142.767 29.472C143.001 29.28 143.119 29.024 143.119 28.704C143.119 28.0213 142.628 27.392 141.647 26.816C140.601 26.24 139.78 25.6 139.183 24.896C138.585 24.192 138.287 23.2 138.287 21.92C138.287 20.6187 138.82 19.456 139.887 18.432C140.953 17.3867 142.095 16.864 143.311 16.864C144.548 16.864 145.519 17.2907 146.223 18.144C146.948 18.976 147.311 20.1067 147.311 21.536C147.311 22.112 147.247 22.7307 147.119 23.392L144.207 23.136C144.271 22.6453 144.303 22.24 144.303 21.92ZM156.933 18.624V21.664C155.909 21.664 155.119 21.6747 154.565 21.696C154.501 23.8293 154.469 27.4133 154.469 32.448L150.693 32.096C150.693 28.3627 150.725 24.9813 150.789 21.952C150.469 21.952 149.861 22.0053 148.965 22.112L148.485 19.488C148.997 19.3813 149.797 19.2427 150.885 19.072C150.927 17.4933 151.013 15.1893 151.141 12.16L154.949 12.512C154.821 14.624 154.725 16.672 154.661 18.656C155.194 18.6347 155.951 18.624 156.933 18.624Z" fill="black"/>
</svg>
