<svg width="15" height="16" viewBox="0 0 15 16" fill="none" xmlns="http://www.w3.org/2000/svg">
<path d="M10.8344 1.58492C11.0066 1.39948 11.211 1.25238 11.436 1.15201C11.661 1.05165 11.9021 1 12.1456 1C12.3891 1 12.6303 1.05165 12.8553 1.15201C13.0802 1.25238 13.2847 1.39948 13.4569 1.58492C13.6291 1.77036 13.7657 1.99051 13.8588 2.2328C13.952 2.47509 14 2.73478 14 2.99703C14 3.25928 13.952 3.51897 13.8588 3.76126C13.7657 4.00355 13.6291 4.2237 13.4569 4.40914L4.60593 13.9409L1 15L1.98344 11.1167L10.8344 1.58492Z" stroke="black" stroke-width="0.960677" stroke-linecap="round" stroke-linejoin="round"/>
</svg>
