<svg width="24" height="24" viewBox="0 0 24 24" fill="none" xmlns="http://www.w3.org/2000/svg">
<g clip-path="url(#clip0_175_92)">
<path d="M19 4H5C3.89543 4 3 4.89543 3 6V20C3 21.1046 3.89543 22 5 22H19C20.1046 22 21 21.1046 21 20V6C21 4.89543 20.1046 4 19 4Z" stroke="#875233" stroke-width="2" stroke-linecap="round" stroke-linejoin="round"/>
<path d="M3 10H21" stroke="#875233" stroke-width="2" stroke-linecap="round" stroke-linejoin="round"/>
<path d="M7.24921 19.2777L10.2282 16.1007C10.3662 15.9507 10.4832 15.8037 10.5792 15.6597C10.6812 15.5097 10.7562 15.3597 10.8042 15.2097C10.8582 15.0537 10.8852 14.8917 10.8852 14.7237C10.8852 14.5857 10.8582 14.4507 10.8042 14.3187C10.7502 14.1867 10.6692 14.0667 10.5612 13.9587C10.4592 13.8507 10.3332 13.7637 10.1832 13.6977C10.0332 13.6317 9.86221 13.5987 9.67021 13.5987C9.40021 13.5987 9.16621 13.6617 8.96821 13.7877C8.77621 13.9077 8.62921 14.0847 8.52721 14.3187C8.42521 14.5467 8.37421 14.8197 8.37421 15.1377H7.60921C7.60921 14.6877 7.69021 14.2947 7.85221 13.9587C8.01421 13.6167 8.24821 13.3527 8.55421 13.1667C8.86621 12.9747 9.23821 12.8787 9.67021 12.8787C10.0182 12.8787 10.3182 12.9387 10.5702 13.0587C10.8222 13.1727 11.0292 13.3227 11.1912 13.5087C11.3532 13.6887 11.4732 13.8837 11.5512 14.0937C11.6292 14.3037 11.6682 14.5047 11.6682 14.6967C11.6682 15.0207 11.5902 15.3417 11.4342 15.6597C11.2782 15.9777 11.0772 16.2627 10.8312 16.5147L8.82421 18.5577H11.6952V19.2777H7.24921ZM12.4632 13.6977V12.9777H16.8732L13.8582 19.2777H13.0572L15.7302 13.6977H12.4632Z" fill="#875233"/>
</g>
<defs>
<clipPath id="clip0_175_92">
<rect width="24" height="24" fill="white"/>
</clipPath>
</defs>
</svg>
