<svg width="16" height="16" viewBox="0 0 16 16" fill="none" xmlns="http://www.w3.org/2000/svg">
<path d="M12.6667 2.66663H3.33333C2.59695 2.66663 2 3.26358 2 3.99996V13.3333C2 14.0697 2.59695 14.6666 3.33333 14.6666H12.6667C13.403 14.6666 14 14.0697 14 13.3333V3.99996C14 3.26358 13.403 2.66663 12.6667 2.66663Z" stroke="#838383" stroke-width="2" stroke-linecap="round" stroke-linejoin="round"/>
<path d="M2 6.66663H14" stroke="#838383" stroke-width="2" stroke-linecap="round" stroke-linejoin="round"/>
<path d="M5.4 9.19V8.75L6.6 8.45V12H6.175V8.96L5.4 9.19ZM7.65098 9.345C7.65098 9.17833 7.69264 9.02833 7.77598 8.895C7.86264 8.75833 7.97764 8.65 8.12098 8.57C8.26764 8.49 8.43264 8.45 8.61598 8.45C8.79931 8.45 8.96264 8.49 9.10598 8.57C9.25264 8.65 9.36764 8.75833 9.45098 8.895C9.53764 9.02833 9.58098 9.17833 9.58098 9.345C9.58098 9.48167 9.55764 9.605 9.51098 9.715C9.46431 9.82167 9.39764 9.91333 9.31098 9.99C9.22764 10.0667 9.12598 10.125 9.00598 10.165C8.88931 10.205 8.75931 10.225 8.61598 10.225C8.47264 10.225 8.34098 10.205 8.22098 10.165C8.10431 10.125 8.00264 10.0667 7.91598 9.99C7.83264 9.91333 7.76764 9.82167 7.72098 9.715C7.67431 9.605 7.65098 9.48167 7.65098 9.345ZM8.05598 9.395C8.05598 9.505 8.08098 9.60167 8.13098 9.685C8.18431 9.76833 8.25264 9.83333 8.33598 9.88C8.42264 9.92667 8.51598 9.95 8.61598 9.95C8.71598 9.95 8.80764 9.92667 8.89098 9.88C8.97764 9.83333 9.04598 9.76833 9.09598 9.685C9.14931 9.60167 9.17598 9.505 9.17598 9.395C9.17598 9.285 9.15098 9.18667 9.10098 9.1C9.05431 9.01333 8.98931 8.94667 8.90598 8.9C8.82264 8.85 8.72598 8.825 8.61598 8.825C8.50931 8.825 8.41264 8.85 8.32598 8.9C8.24264 8.94667 8.17598 9.01333 8.12598 9.1C8.07931 9.18667 8.05598 9.285 8.05598 9.395ZM7.52598 11.05C7.52598 10.89 7.55431 10.7483 7.61098 10.625C7.67098 10.4983 7.75098 10.3933 7.85098 10.31C7.95431 10.2233 8.07098 10.1583 8.20098 10.115C8.33431 10.0717 8.47264 10.05 8.61598 10.05C8.75931 10.05 8.89598 10.0717 9.02598 10.115C9.15931 10.1583 9.27598 10.2233 9.37598 10.31C9.47931 10.3933 9.55931 10.4983 9.61598 10.625C9.67598 10.7483 9.70598 10.89 9.70598 11.05C9.70598 11.1867 9.67764 11.315 9.62098 11.435C9.56764 11.555 9.49098 11.6617 9.39098 11.755C9.29431 11.8483 9.17931 11.9217 9.04598 11.975C8.91598 12.025 8.77264 12.05 8.61598 12.05C8.45931 12.05 8.31431 12.025 8.18098 11.975C8.05098 11.9217 7.93598 11.8483 7.83598 11.755C7.73931 11.6617 7.66264 11.555 7.60598 11.435C7.55264 11.315 7.52598 11.1867 7.52598 11.05ZM7.93098 11C7.93098 11.1433 7.96264 11.265 8.02598 11.365C8.09264 11.465 8.17764 11.5417 8.28098 11.595C8.38764 11.6483 8.49931 11.675 8.61598 11.675C8.73264 11.675 8.84264 11.6483 8.94598 11.595C9.05264 11.5417 9.13764 11.465 9.20098 11.365C9.26764 11.265 9.30098 11.1433 9.30098 11C9.30098 10.8733 9.26764 10.76 9.20098 10.66C9.13764 10.5567 9.05264 10.475 8.94598 10.415C8.84264 10.355 8.73264 10.325 8.61598 10.325C8.49931 10.325 8.38764 10.355 8.28098 10.415C8.17764 10.475 8.09264 10.5567 8.02598 10.66C7.96264 10.76 7.93098 10.8733 7.93098 11Z" fill="#838383"/>
</svg>
