<svg width="28" height="28" viewBox="0 0 28 28" fill="none" xmlns="http://www.w3.org/2000/svg">
<g clip-path="url(#clip0_14_8)">
<path d="M14 0.4375C6.50781 0.4375 0.4375 6.50781 0.4375 14C0.4375 21.4922 6.50781 27.5625 14 27.5625C21.4922 27.5625 27.5625 21.4922 27.5625 14C27.5625 6.50781 21.4922 0.4375 14 0.4375ZM14 5.6875C16.6578 5.6875 18.8125 7.84219 18.8125 10.5C18.8125 13.1578 16.6578 15.3125 14 15.3125C11.3422 15.3125 9.1875 13.1578 9.1875 10.5C9.1875 7.84219 11.3422 5.6875 14 5.6875ZM14 24.5C10.7898 24.5 7.91328 23.0453 5.98828 20.7703C7.01641 18.8344 9.02891 17.5 11.375 17.5C11.5063 17.5 11.6375 17.5219 11.7633 17.5602C12.4742 17.7898 13.218 17.9375 14 17.9375C14.782 17.9375 15.5312 17.7898 16.2367 17.5602C16.3625 17.5219 16.4937 17.5 16.625 17.5C18.9711 17.5 20.9836 18.8344 22.0117 20.7703C20.0867 23.0453 17.2102 24.5 14 24.5Z" fill="url(#paint0_linear_14_8)"/>
</g>
<defs>
<linearGradient id="paint0_linear_14_8" x1="14" y1="0.4375" x2="14" y2="27.5625" gradientUnits="userSpaceOnUse">
<stop stop-color="#875233"/>
<stop offset="1" stop-color="#B09375"/>
</linearGradient>
<clipPath id="clip0_14_8">
<rect width="28" height="28" fill="white"/>
</clipPath>
</defs>
</svg>
